<svg width="28" height="28" viewBox="0 0 28 28" fill="none" xmlns="http://www.w3.org/2000/svg">
<path d="M12.3129 0.317017C12.1697 0.317092 12.0312 0.367518 11.9221 0.459302C11.8129 0.551086 11.7403 0.678262 11.717 0.818152L11.2322 3.7565C11.1694 4.13725 10.8916 4.44382 10.528 4.57296C10.2349 4.67703 9.94817 4.79383 9.66815 4.92308C9.3235 5.08216 8.91793 5.06131 8.60799 4.84216L6.14498 3.10071C6.02874 3.01854 5.88685 2.9798 5.7445 2.99134C5.60214 3.00289 5.46852 3.06399 5.36734 3.16379L3.01674 5.48841C2.91629 5.58791 2.85449 5.71929 2.84219 5.85944C2.82988 5.99959 2.86788 6.13954 2.94948 6.25471L4.67593 8.69957C4.89738 9.01315 4.91577 9.424 4.7508 9.77063C4.61795 10.0498 4.49765 10.3357 4.39032 10.6283C4.25855 10.9875 3.95367 11.2611 3.57616 11.3233L0.610681 11.8116C0.469802 11.8351 0.341887 11.9072 0.249643 12.0152C0.1574 12.1232 0.106795 12.2601 0.106813 12.4015L0.106813 15.691C0.106555 15.8316 0.156325 15.9678 0.247387 16.0756C0.338449 16.1835 0.464983 16.2562 0.604781 16.2809L3.58008 16.8025C3.95361 16.868 4.25393 17.1407 4.38383 17.4969C4.49029 17.7889 4.60971 18.0746 4.74191 18.3535C4.90796 18.7039 4.88726 19.1194 4.66026 19.4337L2.91762 21.8471C2.83462 21.9622 2.79548 22.1027 2.80714 22.2436C2.81881 22.3845 2.88052 22.5168 2.98134 22.617L5.33077 24.9439C5.43107 25.0432 5.56347 25.1044 5.70478 25.1168C5.8461 25.1292 5.98731 25.092 6.10368 25.0117L8.59277 23.2867C8.90234 23.0722 9.30447 23.0536 9.64609 23.2122C9.9307 23.3444 10.2223 23.4637 10.5203 23.5699C10.8824 23.6989 11.1592 24.004 11.2228 24.3831L11.717 27.3293C11.7405 27.4689 11.8133 27.5958 11.9224 27.6874C12.0315 27.7789 12.1699 27.8292 12.3129 27.8292H15.6359C15.7781 27.8294 15.9158 27.78 16.0248 27.6896C16.1338 27.5992 16.2071 27.4737 16.2318 27.3351L16.7637 24.3628C16.8304 23.9901 17.1034 23.691 17.4594 23.5622C17.7575 23.4543 18.0491 23.3331 18.3336 23.1993C18.6763 23.038 19.081 23.056 19.392 23.272L21.8983 25.0128C22.0146 25.0936 22.156 25.1312 22.2975 25.119C22.4391 25.1069 22.5718 25.0457 22.6723 24.9462L25.0218 22.6181C25.123 22.5177 25.1849 22.3849 25.1964 22.2434C25.2078 22.102 25.1681 21.9611 25.0843 21.846L23.3094 19.4068C23.0812 19.0932 23.059 18.6778 23.2239 18.3268C23.3502 18.058 23.4647 17.7831 23.567 17.5023C23.6972 17.1451 23.9985 16.8718 24.3731 16.8068L27.3972 16.2821C27.5372 16.2576 27.664 16.185 27.7553 16.0771C27.8466 15.9692 27.8965 15.8329 27.8963 15.6922V12.4027C27.8962 12.2609 27.8453 12.1238 27.7526 12.0157C27.6599 11.9077 27.5314 11.8357 27.3901 11.8128L24.3794 11.3254C24.0008 11.2641 23.6947 10.9902 23.5625 10.6302C23.4594 10.3495 23.3442 10.0746 23.2173 9.80593C23.0536 9.4591 23.0729 9.04872 23.2947 8.73583L25.0513 6.25822C25.1329 6.14305 25.1709 6.00309 25.1586 5.86294C25.1463 5.72279 25.0845 5.59142 24.984 5.49191L22.6334 3.16613C22.5319 3.0659 22.3978 3.00464 22.2549 2.9933C22.112 2.98196 21.9697 3.02127 21.8534 3.10422C21.7683 3.16494 20.2136 4.27172 19.3865 4.86048C19.0751 5.08215 18.6673 5.1023 18.321 4.94054C18.0392 4.80892 17.7504 4.68976 17.455 4.58363C17.097 4.45501 16.8224 4.15438 16.7562 3.77973L16.2318 0.812312C16.2073 0.673492 16.1341 0.547684 16.0251 0.457071C15.9161 0.366458 15.7782 0.316858 15.6359 0.317017L12.3129 0.317017ZM12.6892 2.3503C12.769 1.86743 13.1865 1.5132 13.6759 1.5132L14.2899 1.5132C14.775 1.5132 15.1901 1.8613 15.2746 2.33893L15.7303 4.91368C15.7503 5.02773 15.8033 5.13357 15.8829 5.21838C15.9625 5.30319 16.0653 5.36331 16.1787 5.39145C17.0623 5.60943 17.8922 5.95496 18.6497 6.40891C18.7509 6.46965 18.868 6.4996 18.9863 6.49503C19.1046 6.49046 19.219 6.45158 19.3152 6.38321L21.4571 4.85931C21.8533 4.57744 22.3948 4.62139 22.7403 4.96346L23.1668 5.38566C23.5146 5.72997 23.5621 6.27541 23.2791 6.67466L21.7567 8.8223C21.6894 8.91703 21.6514 9.02904 21.6472 9.14475C21.643 9.26045 21.6728 9.37487 21.7331 9.47413C22.1871 10.2223 22.5314 11.0386 22.7514 11.9085C22.7801 12.0218 22.8416 12.1244 22.9284 12.2035C23.0152 12.2825 23.1235 12.3347 23.2399 12.3536L25.8478 12.7759C26.3321 12.8544 26.688 13.2725 26.688 13.7631V14.3487C26.688 14.8349 26.3382 15.2506 25.8592 15.3339L23.2329 15.7903C23.1176 15.8105 23.0107 15.8634 22.9252 15.9427C22.8397 16.0219 22.7794 16.124 22.7514 16.2365C22.534 17.1053 22.1894 17.9217 21.7354 18.6698C21.6745 18.77 21.6446 18.8857 21.6494 19.0026C21.6542 19.1195 21.6936 19.2325 21.7626 19.3274L23.2985 21.4377C23.5893 21.8371 23.5448 22.389 23.1938 22.7366L22.7678 23.1587C22.4253 23.498 21.8894 23.5446 21.4935 23.2696L19.3128 21.7549C19.2167 21.6882 19.1029 21.6507 18.9856 21.6469C18.8682 21.6432 18.7523 21.6734 18.652 21.7338C17.8983 22.1878 17.0676 22.5349 16.187 22.756C16.0741 22.7841 15.9718 22.844 15.8925 22.9283C15.8131 23.0127 15.7601 23.1179 15.7397 23.2314L15.2773 25.8096C15.1919 26.2862 14.7772 26.633 14.293 26.633H13.6711C13.1828 26.633 12.7658 26.2803 12.6849 25.7987L12.2563 23.2466C12.2369 23.1314 12.1839 23.0243 12.1038 22.9386C12.0237 22.8529 11.92 22.7922 11.8055 22.7641C10.9214 22.5484 10.0878 22.2034 9.32513 21.7502C9.225 21.6908 9.10965 21.6614 8.99301 21.6656C8.87637 21.6697 8.76344 21.7072 8.66786 21.7736L6.50972 23.2703C6.11368 23.545 5.57807 23.4981 5.2358 23.1587L4.8056 22.7322C4.45578 22.3855 4.41061 21.8356 4.69914 21.4363L6.20634 19.3508C6.27498 19.2556 6.31391 19.1425 6.31831 19.0257C6.32272 18.9088 6.2924 18.7932 6.23112 18.6931C5.76831 17.9361 5.4183 17.111 5.19742 16.2319C5.16916 16.1199 5.10878 16.0184 5.02357 15.9396C4.93835 15.8609 4.83193 15.8082 4.71715 15.788L2.142 15.3352C1.66385 15.2512 1.31515 14.8358 1.31515 14.3503L1.31515 13.7573C1.31515 13.2677 1.66965 12.8501 2.15275 12.7706L4.71479 12.3489C4.83101 12.3299 4.93906 12.2776 5.02564 12.1985C5.11223 12.1194 5.17358 12.017 5.20214 11.9039C5.42492 11.0217 5.77476 10.1967 6.23584 9.44142C6.29664 9.34226 6.32701 9.22773 6.32323 9.1118C6.31946 8.99586 6.28172 8.88351 6.2146 8.78842L4.71896 6.67228C4.43672 6.27295 4.48467 5.72808 4.83231 5.38418L5.2632 4.95794C5.60806 4.61679 6.14803 4.57235 6.54403 4.85253L8.67612 6.36101C8.77195 6.42865 8.88564 6.46712 9.00324 6.47168C9.12084 6.47625 9.23723 6.44672 9.33811 6.38671C10.0967 5.93566 10.9323 5.59343 11.8173 5.3786C11.9324 5.35056 12.0366 5.28966 12.1169 5.20346C12.1973 5.11727 12.2503 5.00959 12.2693 4.89382L12.6892 2.3503ZM14.0016 9.28839C11.3393 9.28839 9.16819 11.4377 9.16819 14.0731C9.16819 16.7086 11.3393 18.8579 14.0016 18.8579C16.6638 18.8579 18.8349 16.7086 18.8349 14.0731C18.8349 11.4377 16.6638 9.28839 14.0016 9.28839ZM14.0016 10.4846C16.0108 10.4846 17.6266 12.0841 17.6266 14.0731C17.6266 16.0621 16.0108 17.6617 14.0016 17.6617C11.9924 17.6617 10.3765 16.0621 10.3765 14.0731C10.3765 12.0841 11.9924 10.4846 14.0016 10.4846Z" fill="#D9D9D9"/>
</svg>
