<svg width="60" height="61" viewBox="0 0 60 61" fill="none" xmlns="http://www.w3.org/2000/svg">
<rect x="21.2272" width="37" height="54" rx="7" transform="rotate(12 21.2272 0)" fill="#D9D9D9"/>
<path fill-rule="evenodd" clip-rule="evenodd" d="M17.0983 7.00024C16.8336 7.52611 16.6314 8.09423 16.5033 8.69712L8.1868 47.823C7.38301 51.6045 9.79694 55.3216 13.5785 56.1254L36.0758 60.9074C36.0855 60.9095 36.0953 60.9115 36.105 60.9135C35.745 60.9706 35.376 61.0002 35 61.0002H12C8.13401 61.0002 5 57.8662 5 54.0002V14.0002C5 10.1342 8.13401 7.00024 12 7.00024H17.0983Z" fill="#D9D9D9"/>
<path d="M26.8729 18.6349C26.2725 18.5598 27.0461 17.7097 27.4028 17.6811C28.1486 17.6215 28.6786 16.9181 29.501 16.9181C30.3854 16.9181 30.5278 16.8099 30.9211 17.5964C31.2143 18.1828 31.5007 18.7871 31.79 19.3979C32.4617 20.8158 32.8983 20.6241 34.1214 20.0125C35.0312 19.5576 36.0747 18.9352 37.0887 18.6455C37.5913 18.5019 39.0369 21.0632 39.2717 21.5915C39.693 22.5394 41.2611 22.0509 42.027 22.2698C42.9064 22.521 43.5993 22.2592 44.5174 22.2592C44.9504 22.2592 45.068 22.7967 45.6513 22.6301C45.7758 22.5945 46.3906 22.0722 46.5202 21.8777" stroke="#232323" stroke-width="2" stroke-linecap="round"/>
<path d="M25 29.7762C25.2159 29.7492 25.6861 29.3653 25.9538 29.2463C26.4692 29.0172 27.1149 29.0132 27.6705 29.0132C28.1761 29.0132 28.6916 28.9835 29.1965 29.0132C29.4776 29.0297 29.4745 29.5555 29.6204 29.7338C29.9597 30.1485 30.336 31.6516 30.9133 31.6837C31.9823 31.7431 33.2666 31.8244 34.3256 31.6731C34.8204 31.6024 35.2408 31.3022 35.7774 31.3022C36.3967 31.3022 36.795 31.8043 37.2928 32.0758C37.968 32.4441 38.4111 33.4005 39.2109 33.4005C39.9739 33.4005 40.737 33.4005 41.5 33.4005C42.9326 33.4005 42.0724 34.3066 42.9306 34.7357" stroke="#232323" stroke-width="2" stroke-linecap="round"/>
<path d="M22.2202 39.1615C22.2958 38.5572 23.6585 38.4591 24.0778 38.4591C25.0532 38.4591 25.9962 38.807 26.5051 39.5986C27.172 40.6361 27.7407 41.8492 28.5109 42.7049C29.0319 43.2838 29.5471 43.2356 30.3684 43.2356C30.9107 43.2356 31.4416 42.8744 31.9918 42.822C32.7266 42.752 33.5168 42.6511 34.2318 42.463C34.666 42.3487 34.9814 42.0887 35.3557 42.463C35.6728 42.7801 36.1608 42.9216 36.5498 43.1264C36.9106 43.3163 37.0961 43.5154 37.1117 43.9068C37.1276 44.3022 37.9575 43.9822 38.1576 43.9459C38.8944 43.8119 39.5 43.5459 39.5 44.5" stroke="#232323" stroke-width="2" stroke-linecap="round"/>
</svg>
