<svg width="31" height="31" viewBox="0 0 31 31" fill="none" xmlns="http://www.w3.org/2000/svg">
<path d="M9.15909 0C4.10925 0 0 4.10925 0 9.15909V21.8409C0 26.8907 4.10925 31 9.15909 31H21.8409C26.8907 31 31 26.8907 31 21.8409V9.15909C31 4.10925 26.8907 0 21.8409 0H9.15909ZM9.15909 1.40909H21.8409C26.1291 1.40909 29.5909 4.87089 29.5909 9.15909V21.8409C29.5909 26.1291 26.1291 29.5909 21.8409 29.5909H9.15909C4.87089 29.5909 1.40909 26.1291 1.40909 21.8409V9.15909C1.40909 4.87089 4.87089 1.40909 9.15909 1.40909ZM23.9545 5.63636C23.5808 5.63636 23.2224 5.78482 22.9582 6.04908C22.6939 6.31333 22.5455 6.67174 22.5455 7.04545C22.5455 7.41917 22.6939 7.77758 22.9582 8.04183C23.2224 8.30609 23.5808 8.45455 23.9545 8.45455C24.3283 8.45455 24.6867 8.30609 24.9509 8.04183C25.2152 7.77758 25.3636 7.41917 25.3636 7.04545C25.3636 6.67174 25.2152 6.31333 24.9509 6.04908C24.6867 5.78482 24.3283 5.63636 23.9545 5.63636ZM15.5 7.75C11.2281 7.75 7.75 11.2281 7.75 15.5C7.75 19.7719 11.2281 23.25 15.5 23.25C19.7719 23.25 23.25 19.7719 23.25 15.5C23.25 11.2281 19.7719 7.75 15.5 7.75ZM15.5 9.15909C19.0103 9.15909 21.8409 11.9897 21.8409 15.5C21.8409 19.0103 19.0103 21.8409 15.5 21.8409C11.9897 21.8409 9.15909 19.0103 9.15909 15.5C9.15909 11.9897 11.9897 9.15909 15.5 9.15909Z" fill="#D9D9D9"/>
</svg>
