<svg width="33" height="32" viewBox="0 0 33 32" fill="none" xmlns="http://www.w3.org/2000/svg">
<path d="M1.09995 0.300049C0.861264 0.300073 0.632359 0.394901 0.463582 0.563679C0.294804 0.732457 0.199975 0.961361 0.199951 1.20005V30.9C0.199975 31.1387 0.294804 31.3676 0.463582 31.5364C0.632359 31.7052 0.861264 31.8 1.09995 31.8H6.49995C6.73864 31.8 6.96754 31.7052 7.13632 31.5364C7.3051 31.3676 7.39993 31.1387 7.39995 30.9V1.20005C7.39993 0.961361 7.3051 0.732457 7.13632 0.563679C6.96754 0.394901 6.73864 0.300073 6.49995 0.300049H1.09995ZM20.9 0.300049C14.4489 0.300049 9.19995 5.54898 9.19995 12C9.19995 18.4511 14.4489 23.7 20.9 23.7C27.351 23.7 32.6 18.4511 32.6 12C32.6 5.54898 27.351 0.300049 20.9 0.300049ZM1.99995 2.10005H5.59995V30H1.99995V2.10005ZM20.9 2.10005C26.3782 2.10005 30.8 6.52177 30.8 12C30.8 17.4783 26.3782 21.9 20.9 21.9C15.4217 21.9 11 17.4783 11 12C11 6.52177 15.4217 2.10005 20.9 2.10005Z" fill="#D9D9D9"/>
</svg>
