<svg width="31" height="31" viewBox="0 0 31 31" fill="none" xmlns="http://www.w3.org/2000/svg">
<path d="M6.26197 0C5.55079 0 4.9533 0.513332 4.8026 1.15829V1.17935C4.8026 1.17935 0.82635 19.3513 0.0437891 22.9762V22.9973C-0.0725374 23.5764 0.0437891 24.1371 0.382194 24.4925C0.720598 24.8479 1.14889 24.9348 1.50316 24.9348H7.29834C7.11592 25.7561 6.91234 26.6591 6.76958 27.3145C6.64003 27.9068 6.529 28.3886 6.45233 28.7466C6.37566 29.1046 6.34657 29.2678 6.32542 29.3784C6.2699 29.6706 6.28312 30.0049 6.51578 30.3682C6.74843 30.7315 7.25868 31 7.82709 31H13.8761C14.6031 31 15.1847 30.4946 15.3354 29.8207C15.3354 29.8207 15.6976 28.1964 16.0546 26.5564C16.2317 25.7351 16.4009 24.9216 16.541 24.2819C16.6811 23.6422 16.7948 23.1447 16.7948 23.1447C16.8292 22.9999 16.8583 22.9367 16.8583 22.9341C16.8583 22.9315 16.7922 22.913 16.9852 22.913H20.4538C25.4506 22.913 29.6542 19.9173 30.7752 14.6997C31.407 11.7487 30.6509 9.50323 29.21 8.08696C27.9384 6.83653 26.1908 6.24159 24.5147 6.10734C24.3137 4.10403 23.3567 2.54034 22.0612 1.53736C20.6997 0.484375 19.013 0 17.4082 0H6.26197ZM6.26197 1.34783H17.4082C18.7301 1.34783 20.1498 1.76902 21.2364 2.61141C22.2278 3.3801 22.894 4.52259 23.0976 6.06522H12.6917C12.5145 6.06522 12.3189 6.04416 12.0149 6.1284C11.7108 6.21264 11.338 6.56539 11.2534 6.92867L9.05381 16.7846V16.8268L7.53099 23.587H1.50316C1.40005 23.587 1.34982 23.5606 1.35511 23.5659C1.36039 23.5712 1.33396 23.5185 1.37626 23.2711C1.3789 23.2526 1.37097 23.2711 1.37626 23.25C2.16146 19.6172 6.12714 1.50841 6.13507 1.47418V1.45312C6.15622 1.38468 6.19588 1.34783 6.26197 1.34783ZM12.5225 7.41304C12.5806 7.41041 12.578 7.41304 12.6917 7.41304H23.1611C23.132 7.85267 23.0712 8.31861 22.9495 8.88723C22.4472 11.2301 21.4294 12.8307 19.9462 13.8995C18.463 14.9682 16.4696 15.5 14.0453 15.5H11.0631C10.96 15.5 10.8331 15.529 10.7035 15.5421L12.5225 7.41304ZM24.4512 7.51834C25.8498 7.64207 27.2801 8.09485 28.2583 9.05571C29.3766 10.1561 30.0032 11.8093 29.4427 14.426C28.4407 19.0854 24.9271 21.5652 20.4538 21.5652H16.9852C16.4802 21.5652 16.0387 21.789 15.8008 22.0917C15.5628 22.3944 15.5099 22.7156 15.4835 22.8288C15.4518 22.9578 15.3698 23.3474 15.2297 23.9871C15.0896 24.6268 14.8992 25.4613 14.7221 26.2826C14.3652 27.9226 14.0241 29.5258 14.0241 29.5258C14.0109 29.5811 13.8999 29.6522 13.8761 29.6522H7.82709C7.71341 29.6522 7.67375 29.6364 7.65789 29.6311C7.64732 29.6838 7.70812 29.3995 7.78479 29.0414C7.86146 28.6834 7.9725 28.1806 8.10205 27.5883C8.3585 26.4011 8.69426 24.8453 9.03266 23.2921C9.70947 20.1858 10.3863 17.1005 10.3863 17.1005C10.418 17.0031 10.4418 16.9795 10.5555 16.9321C10.6824 16.8794 10.8992 16.8478 11.0631 16.8478H14.0453C16.6706 16.8478 18.9548 16.2713 20.7288 14.9946C22.5027 13.7178 23.7242 11.7566 24.282 9.16101C24.4089 8.5687 24.4169 8.0501 24.4512 7.51834Z" fill="#D9D9D9"/>
</svg>
