<svg width="31" height="31" viewBox="0 0 31 31" fill="none" xmlns="http://www.w3.org/2000/svg">
<path d="M15.5 0C6.94756 0 0 6.94757 0 15.5C0 24.0524 6.94756 31 15.5 31C24.0524 31 31 24.0524 31 15.5C31 6.94757 24.0524 0 15.5 0ZM15.5 1.34783C23.324 1.34783 29.6522 7.67599 29.6522 15.5C29.6522 23.324 23.324 29.6522 15.5 29.6522C7.67598 29.6522 1.34783 23.324 1.34783 15.5C1.34783 7.67599 7.67598 1.34783 15.5 1.34783ZM21.6244 8.11065C21.1635 8.11065 20.6455 8.21741 20.0397 8.43576C19.0989 8.77474 8.03354 13.473 6.77467 14.0074C6.05493 14.3133 4.71476 14.8825 4.71476 16.2397C4.71476 17.1394 5.24194 17.7829 6.27976 18.1535C6.83776 18.3523 8.16305 18.754 8.93198 18.9657C9.25815 19.0553 9.60478 19.1012 9.96128 19.1012C10.6588 19.1012 11.3607 18.9274 11.9106 18.6208C11.9059 18.734 11.909 18.8485 11.9225 18.963C12.0054 19.6706 12.4417 20.3362 13.0887 20.7439C13.5119 21.0108 16.9687 23.3269 17.4849 23.6949C18.21 24.2131 19.0116 24.4873 19.8015 24.4873C21.311 24.4873 21.8175 22.9286 22.0614 22.1799C22.4152 21.0929 23.7401 12.2532 23.8897 10.6944C23.9915 9.62627 23.5463 8.74669 22.6985 8.34099C22.3811 8.18801 22.0187 8.11065 21.6244 8.11065ZM21.6244 9.45848C21.8098 9.45848 21.9752 9.48913 22.1154 9.55719C22.4342 9.71017 22.5963 10.0512 22.5471 10.5667C22.384 12.267 21.0624 20.8973 20.7807 21.7627C20.5395 22.5026 20.2853 23.1394 19.8015 23.1394C19.3176 23.1394 18.789 22.9698 18.268 22.5971C17.7471 22.2251 14.2878 19.9053 13.8073 19.6027C13.3861 19.3372 12.9404 18.6753 13.5678 18.0351C14.0847 17.5081 18.0055 13.7026 18.3404 13.3677C18.5898 13.1177 18.4732 12.8162 18.2286 12.8162C18.1443 12.8162 18.0434 12.8517 17.939 12.9373C17.5292 13.2722 11.8169 17.0947 11.3223 17.402C10.9947 17.6055 10.4876 17.7521 9.96128 17.7521C9.73686 17.7521 9.50966 17.7252 9.29131 17.6652C8.53114 17.4556 7.24469 17.0653 6.73387 16.8834C6.24258 16.7081 6.0639 16.5403 6.0639 16.2397C6.0639 15.8125 6.66698 15.5175 7.30248 15.2473C7.9737 14.9622 19.588 10.0301 20.4964 9.70329C20.917 9.55099 21.3016 9.45848 21.6244 9.45848Z" fill="#D9D9D9"/>
</svg>
