<svg width="60" height="22" viewBox="0 0 60 22" fill="none" xmlns="http://www.w3.org/2000/svg">
<path d="M22.535 9.55948H12.2075V13.0352H17.2125C16.8 13.8336 16.2075 14.5301 15.485 15.0948L15.4875 15.0971H15.4825C14.34 15.9811 12.8725 16.511 11.2675 16.511C8.4825 16.511 6.105 14.9096 5.1475 12.6465C4.855 11.9569 4.695 11.2094 4.695 10.4273C4.695 9.16609 5.11 7.99748 5.8175 7.02556L5.94 6.87514C7.13 5.33859 9.0675 4.34354 11.265 4.34354C13.02 4.34354 14.6175 4.9776 15.79 6.02125L18.925 2.77922C16.92 1.05985 14.225 0 11.2675 0C7.38 0 3.9525 1.82581 1.925 4.59808C0.71 6.26423 0 8.27054 0 10.4296C0 12.142 0.445 13.7572 1.235 15.1827C3.1025 18.552 6.8925 20.8592 11.265 20.8592C14.2675 20.8592 16.995 19.7739 19.015 18.0013L19.0125 17.9989C21.18 16.106 22.5325 13.4101 22.5325 10.4319V9.55948H22.535ZM52.6625 16.7586L48.23 5.97959H50.9225L53.95 14.183L57.6625 5.97959H60C60 5.97959 52.75 21.8126 52.69 21.9445L50.3525 22C50.395 21.9097 52.6625 16.7586 52.6625 16.7586ZM45.08 12.5909C45.08 13.9262 43.81 14.8772 42.13 14.8772C40.81 14.8772 39.9675 14.3103 39.9675 13.4425C39.9675 12.547 40.7775 12.0263 42.325 11.943L45.0875 11.7555L45.08 12.5909ZM42.7875 5.97959C40.155 5.97959 38.2075 7.32408 38.135 9.17072H40.37C40.555 8.29136 41.465 7.71747 42.715 7.71747C44.23 7.71747 45.0875 8.3469 45.0875 9.51089V10.3139L41.9875 10.462C39.11 10.617 37.55 11.6699 37.55 13.4981C37.55 15.3447 39.1575 16.5712 41.4625 16.5712C43.02 16.5712 44.465 15.8677 45.12 14.7523H45.17L45.1775 16.5712H47.465V9.3651C47.4675 7.30556 45.6225 5.97959 42.7875 5.97959ZM31.45 9.50857H28.3975V3.86221H31.45C33.6275 3.86221 35.025 4.8133 35.025 6.6877C35.025 8.56211 33.6375 9.50857 31.45 9.50857ZM32.18 1.74482H26.11V16.5712H28.3975V11.6283H32.095C35.27 11.6283 37.55 9.57799 37.55 6.68539C37.55 3.79278 35.3125 1.74482 32.18 1.74482Z" fill="#D9D9D9"/>
</svg>
