<svg width="17" height="22" viewBox="0 0 17 22" fill="none" xmlns="http://www.w3.org/2000/svg">
<path opacity="0.81" d="M14.596 0.0498654C14.0862 0.121514 13.606 0.392653 13.2723 0.835476L12.9866 1.21452L16.1945 3.6312C16.1931 3.63302 16.4802 3.25215 16.4802 3.25215C17.1491 2.36468 16.9708 1.10751 16.085 0.440174C15.6405 0.106732 15.1058 -0.0217832 14.596 0.0498654ZM12.4625 2.03112C12.3716 2.05693 12.2918 2.11539 12.2375 2.19308L0.832982 17.3384C0.78698 17.3937 0.755784 17.4617 0.743065 17.5335L0.355942 20.7161C0.338945 20.8619 0.40138 21.0046 0.518031 21.0925C0.634683 21.1804 0.789148 21.2011 0.92462 21.1445L3.87808 19.8953C3.94366 19.8632 4.00037 19.8145 4.04091 19.7551L15.46 4.62074C15.6008 4.43966 15.5658 4.17901 15.3847 4.03827C15.2036 3.89754 14.9428 3.93256 14.8021 4.11364L3.45067 19.1733L1.55508 17.7453L12.9065 2.6856C13.0129 2.55008 13.0239 2.36117 12.9331 2.21426C12.8424 2.06734 12.6705 1.99211 12.5008 2.02573C12.488 2.02753 12.4753 2.02933 12.4625 2.03112Z" fill="#D9D9D9"/>
</svg>
