<svg width="85" height="64" viewBox="0 0 85 64" fill="none" xmlns="http://www.w3.org/2000/svg">
<line x1="44" y1="31.5" x2="70" y2="31.5" stroke="white" stroke-width="5"/>
<path d="M85 32L70 23.3397L70 40.6603L85 32ZM53 32L53 33.5L71.5 33.5L71.5 32L71.5 30.5L53 30.5L53 32Z" fill="white"/>
<path d="M54.5146 0.0126953C59.7983 0.280543 64 4.64975 64 10V20H59V10C59 7.23858 56.7614 5 54 5H10C7.23858 5 5 7.23858 5 10V54C5 56.7614 7.23858 59 10 59H54C56.7614 59 59 56.7614 59 54V43H64V54L63.9873 54.5146C63.7195 59.7983 59.3502 64 54 64H10C4.47715 64 0 59.5228 0 54V10C0 4.64975 4.20167 0.280543 9.48535 0.0126953L10 0H54L54.5146 0.0126953Z" fill="#D9D9D9"/>
</svg>
