<svg width="26" height="21" viewBox="0 0 26 21" fill="none" xmlns="http://www.w3.org/2000/svg">
<mask id="mask0_620_48" style="mask-type:alpha" maskUnits="userSpaceOnUse" x="2" y="0" width="24" height="21">
<path d="M2.09996 0.5L24.2 20.5H25.5V0.5H9.99996H2.09996Z" fill="#D9D9D9"/>
</mask>
<g mask="url(#mask0_620_48)">
<path d="M24.4 20L3.40004 1" stroke="#D9D9D9" stroke-linecap="round"/>
<circle cx="12.9999" cy="9.72828" r="2.10145" fill="#D9D9D9"/>
<path d="M12.9999 5C7.40075 5 3.13827 9.01016 1.51505 10.6806C1.16824 11.0375 1.13957 11.5946 1.47178 11.9651C2.92187 13.5824 7.1221 17.6087 12.9999 17.6087C18.9285 17.6087 23.1503 13.5127 24.565 11.9238C24.8792 11.5709 24.8589 11.0519 24.5255 10.7171C22.9669 9.15213 18.3294 5 12.9999 5Z" stroke="#D9D9D9" stroke-width="1.1"/>
<mask id="mask1_620_48" style="mask-type:alpha" maskUnits="userSpaceOnUse" x="4" y="5" width="18" height="13">
<ellipse cx="12.9999" cy="11.3043" rx="8.93116" ry="6.30435" fill="#D9D9D9"/>
</mask>
<g mask="url(#mask1_620_48)">
<path d="M18.8043 9.7283C18.8043 12.934 16.2056 15.5326 13 15.5326C9.7943 15.5326 7.1956 12.934 7.1956 9.7283C7.1956 6.52265 9.7943 3.92395 13 3.92395C16.2056 3.92395 18.8043 6.52265 18.8043 9.7283Z" stroke="#D9D9D9"/>
</g>
</g>
<mask id="mask2_620_48" style="mask-type:alpha" maskUnits="userSpaceOnUse" x="0" y="2" width="20" height="17">
<path d="M19.6 18L2.5 2.5H0.5V19H15L19.6 18Z" fill="#D9D9D9"/>
</mask>
<g mask="url(#mask2_620_48)">
<path d="M23.9999 20L2.99994 1" stroke="#D9D9D9" stroke-linecap="round"/>
<circle cx="12.9999" cy="9.72828" r="2.10145" fill="#D9D9D9"/>
<path d="M13 5C7.40076 5 3.13828 9.01016 1.51506 10.6806C1.16826 11.0375 1.13958 11.5946 1.4718 11.9651C2.92189 13.5824 7.12212 17.6087 13 17.6087C18.9285 17.6087 23.1503 13.5127 24.565 11.9238C24.8792 11.5709 24.8589 11.0519 24.5255 10.7171C22.9669 9.15213 18.3294 5 13 5Z" stroke="#D9D9D9" stroke-width="1.1"/>
<mask id="mask3_620_48" style="mask-type:alpha" maskUnits="userSpaceOnUse" x="4" y="5" width="18" height="13">
<ellipse cx="12.9999" cy="11.3043" rx="8.93116" ry="6.30435" fill="#D9D9D9"/>
</mask>
<g mask="url(#mask3_620_48)">
<path d="M18.8043 9.7283C18.8043 12.934 16.2056 15.5326 13 15.5326C9.79431 15.5326 7.19562 12.934 7.19562 9.7283C7.19562 6.52265 9.79431 3.92395 13 3.92395C16.2056 3.92395 18.8043 6.52265 18.8043 9.7283Z" stroke="#D9D9D9"/>
</g>
</g>
</svg>
