<svg width="26" height="21" viewBox="0 0 26 21" fill="none" xmlns="http://www.w3.org/2000/svg">
<circle cx="13" cy="9.72828" r="2.10145" fill="#D9D9D9"/>
<path d="M13 5C7.40076 5 3.13828 9.01016 1.51506 10.6806C1.16826 11.0375 1.13958 11.5946 1.4718 11.9651C2.92189 13.5824 7.12212 17.6087 13 17.6087C18.9285 17.6087 23.1503 13.5127 24.565 11.9238C24.8792 11.5709 24.8589 11.0519 24.5255 10.7171C22.9669 9.15213 18.3294 5 13 5Z" stroke="#D9D9D9" stroke-width="1.1"/>
<mask id="mask0_620_135" style="mask-type:alpha" maskUnits="userSpaceOnUse" x="4" y="5" width="18" height="13">
<ellipse cx="12.9999" cy="11.3043" rx="8.93116" ry="6.30435" fill="#D9D9D9"/>
</mask>
<g mask="url(#mask0_620_135)">
<path d="M18.8043 9.7283C18.8043 12.934 16.2056 15.5326 13 15.5326C9.79433 15.5326 7.19563 12.934 7.19563 9.7283C7.19563 6.52265 9.79433 3.92395 13 3.92395C16.2056 3.92395 18.8043 6.52265 18.8043 9.7283Z" stroke="#D9D9D9"/>
</g>
</svg>
