<svg width="8" height="20" viewBox="0 0 8 20" fill="none" xmlns="http://www.w3.org/2000/svg">
<path d="M7.7246 5.496C7.7246 6.26133 7.68727 6.83067 7.6126 7.204C7.53793 7.55867 7.36993 7.92267 7.1086 8.296C6.86593 8.66933 6.4086 9.22933 5.7366 9.976L4.3926 11.488V14.176H2.0126V10.788L3.4966 9.08C4.14993 8.33333 4.57927 7.82 4.7846 7.54C5.0086 7.24133 5.15793 6.98 5.2326 6.756C5.30727 6.51333 5.3446 6.17733 5.3446 5.748V4.348C5.3446 3.76933 5.1766 3.32133 4.8406 3.004C4.5046 2.68667 3.99127 2.528 3.3006 2.528H0.2206V0.399999H3.0206C6.1566 0.399999 7.7246 1.8 7.7246 4.6V5.496ZM1.8166 20V17.2H4.6166V20H1.8166Z" fill="white" fill-opacity="0.8"/>
</svg>
