<svg xmlns="http://www.w3.org/2000/svg" viewBox="0 0 48 48" width="48px" height="48px">
  <path
    d="M 7 6 C 5.3545455 6 4 7.3545455 4 9 L 4 16 A 1.0001 1.0001 0 1 0 6 16 L 6 9 C 6 8.4454545 6.4454545 8 7 8 L 15.140625 8 C 15.89912 8 16.590519 8.425847 16.929688 9.1035156 L 18.552734 12.34375 L 18.552734 12.345703 C 19.061278 13.358256 20.101329 14 21.234375 14 L 39 14 C 40.668484 14 42 15.331516 42 17 L 42 38 C 42 39.668484 40.668484 41 39 41 L 9 41 C 7.3315161 41 6 39.668484 6 38 L 6 22 C 6 21.43497 6.4349698 21 7 21 L 39 21 A 1.0001 1.0001 0 1 0 39 19 L 7 19 C 5.3550302 19 4 20.35503 4 22 L 4 38 C 4 40.749516 6.2504839 43 9 43 L 39 43 C 41.749516 43 44 40.749516 44 38 L 44 17 C 44 14.250484 41.749516 12 39 12 L 21.234375 12 C 20.853421 12 20.5113 11.788666 20.339844 11.447266 L 18.716797 8.2089844 C 18.039965 6.856653 16.65213 6 15.140625 6 L 7 6 z"
    fill="#D9D9D9"
    stroke="#D9D9D9"
    stroke-width="1"
  />
</svg>
