<svg width="31" height="31" viewBox="0 0 31 31" fill="none" xmlns="http://www.w3.org/2000/svg">
<path d="M15.5 0C6.94447 0 0 6.94447 0 15.5C0 24.0555 6.94447 31 15.5 31C24.0555 31 31 24.0555 31 15.5C31 6.94447 24.0555 0 15.5 0ZM15.5 0.939394C23.5473 0.939394 30.0606 7.45268 30.0606 15.5C30.0606 23.5473 23.5473 30.0606 15.5 30.0606C7.45268 30.0606 0.939394 23.5473 0.939394 15.5C0.939394 7.45268 7.45268 0.939394 15.5 0.939394ZM15.5 2.34848C15.2412 2.34848 15.0303 2.55938 15.0303 2.81818C15.0303 3.07698 15.2412 3.28788 15.5 3.28788C15.7588 3.28788 15.9697 3.07698 15.9697 2.81818C15.9697 2.55938 15.7588 2.34848 15.5 2.34848ZM17.9861 2.59067C17.7569 2.58504 17.5588 2.74454 17.5127 2.97047C17.4634 3.22363 17.6283 3.47198 17.8833 3.52364C18.1365 3.57296 18.3839 3.40803 18.4356 3.15486C18.4849 2.89981 18.32 2.65151 18.0668 2.59985C18.0391 2.59562 18.0138 2.59255 17.9861 2.59067ZM13.0286 2.59251C12.9976 2.59251 12.966 2.59421 12.935 2.59985C12.68 2.65104 12.5146 2.89981 12.5662 3.15486C12.5902 3.27604 12.6615 3.38394 12.7662 3.45392C12.8691 3.52203 12.9954 3.5476 13.1185 3.52364C13.3735 3.47245 13.5389 3.22551 13.4873 2.97047C13.4431 2.75159 13.2526 2.59392 13.0286 2.59251ZM10.6507 3.31357C10.5883 3.31357 10.526 3.32447 10.4673 3.34843C10.2268 3.44941 10.1131 3.72258 10.2141 3.96307C10.3132 4.20355 10.5864 4.31721 10.8269 4.2181C11.0674 4.11711 11.181 3.84394 11.0819 3.60346C11.0082 3.4292 10.8396 3.31544 10.6507 3.31357ZM20.3639 3.31357C20.1695 3.30981 19.9932 3.42356 19.9181 3.60346C19.819 3.84394 19.9326 4.11711 20.1731 4.2181C20.4136 4.31721 20.6868 4.20355 20.7859 3.96307C20.8869 3.72258 20.7732 3.44941 20.5327 3.34843C20.4797 3.32635 20.4212 3.31544 20.3639 3.31357ZM8.46005 4.48414C8.3647 4.48414 8.27108 4.51179 8.19218 4.56487C7.97752 4.70813 7.91952 4.99967 8.06466 5.21621C8.20792 5.43086 8.49947 5.48977 8.716 5.34464C8.93253 5.20138 8.98861 4.90979 8.84535 4.69514C8.75845 4.56503 8.61411 4.48602 8.46005 4.48414ZM22.5528 4.48414C22.3931 4.48226 22.243 4.56127 22.1547 4.69514C22.0095 4.90979 22.0684 5.20138 22.2831 5.34464C22.4996 5.48977 22.7912 5.43086 22.9344 5.21621C23.0039 5.11334 23.0299 4.98511 23.006 4.86393C22.982 4.74087 22.9107 4.63297 22.806 4.56487C22.7313 4.5132 22.6444 4.48602 22.5528 4.48414ZM6.53906 6.06203C6.41224 6.06203 6.28977 6.11129 6.20147 6.20147C6.01782 6.38324 6.01782 6.68204 6.20147 6.86381C6.38324 7.04747 6.68204 7.04747 6.86381 6.86381C7.04747 6.68204 7.04747 6.38324 6.86381 6.20147C6.77786 6.11363 6.66212 6.06391 6.53906 6.06203ZM24.4738 6.06203C24.347 6.06203 24.2245 6.11129 24.1362 6.20147C23.9525 6.38324 23.9525 6.68204 24.1362 6.86381C24.318 7.04747 24.6168 7.04747 24.7985 6.86381C24.9822 6.68204 24.9822 6.38324 24.7985 6.20147C24.7126 6.11363 24.5968 6.06391 24.4738 6.06203ZM4.96301 7.98485C4.80331 7.98109 4.65317 8.06019 4.56487 8.19218C4.42161 8.40871 4.47769 8.70026 4.69422 8.84351C4.91075 8.98865 5.20134 8.92973 5.34647 8.71508C5.48973 8.49855 5.43274 8.207 5.21621 8.06374C5.14105 8.01395 5.05507 7.98673 4.96301 7.98485ZM26.0498 7.98485C25.9545 7.98297 25.8627 8.01067 25.7838 8.06374C25.5691 8.207 25.5102 8.49859 25.6554 8.71325C25.7986 8.92978 26.0911 8.98865 26.3058 8.84351C26.5223 8.69838 26.5803 8.40871 26.4351 8.19218C26.3487 8.06395 26.2039 7.98485 26.0498 7.98485ZM7.3803 9.46733C6.7556 9.46733 6.24734 9.97559 6.24734 10.6003V19.8906C6.24734 21.2471 7.35034 22.3519 8.70682 22.3519H18.5549C19.9113 22.3519 21.0148 21.2475 21.0153 19.8906V19.7942C23.801 19.7247 26.0452 17.4371 26.0452 14.6349C26.0452 11.7857 23.73 9.46733 20.8841 9.46733H7.3803ZM3.79427 10.1774C3.59982 10.1736 3.42353 10.2874 3.35026 10.4673C3.25115 10.7078 3.36485 10.9809 3.60346 11.0819C3.84394 11.181 4.11899 11.0674 4.2181 10.8269C4.31721 10.5864 4.20355 10.3132 3.96307 10.2141C3.90952 10.1901 3.85298 10.1793 3.79427 10.1774ZM27.2204 10.1774C27.1579 10.1755 27.0956 10.1883 27.0369 10.2122C26.7964 10.3113 26.6828 10.5864 26.7819 10.825C26.8829 11.0655 27.1561 11.1792 27.3965 11.0801C27.637 10.981 27.7507 10.7059 27.6516 10.4654C27.5783 10.2931 27.4092 10.1774 27.2204 10.1774ZM7.3803 10.4067H20.8841C23.2124 10.4067 25.1059 12.3033 25.1059 14.6349C25.1059 16.9632 23.2124 18.8567 20.8841 18.8567H20.5447C20.2854 18.8567 20.075 19.0666 20.075 19.3264V19.8906C20.075 20.7294 19.3937 21.4116 18.5549 21.4116H8.70682C7.86842 21.4116 7.18581 20.7294 7.18581 19.8906V10.6003C7.18581 10.4951 7.27509 10.4067 7.3803 10.4067ZM20.5456 11.9828C20.2863 11.9828 20.0759 12.1927 20.0759 12.4525V16.8118C20.0759 17.0716 20.2863 17.2815 20.5456 17.2815H20.8841C22.3434 17.2815 23.5307 16.0947 23.5307 14.6349C23.5307 13.1723 22.3434 11.9828 20.8841 11.9828H20.5456ZM15.5807 11.9938C14.6665 11.9673 13.9204 12.4459 13.5047 12.7901C12.9213 12.2983 12.213 12.0288 11.47 12.0222C10.7133 12.0307 10.0207 12.2915 9.56182 12.7791C8.63088 13.7682 8.85024 15.416 9.60035 16.4376C10.0057 16.9895 11.2026 18.1103 12.3947 19.2117C12.6713 19.4677 12.8836 19.6635 12.9635 19.7429C12.9635 19.7429 13.0073 19.7924 13.1148 19.8713C13.2449 19.9671 13.3842 20.0071 13.5148 20.0071C13.6975 20.0071 13.8642 19.9293 13.9652 19.8208C14.0592 19.7358 16.2771 17.708 17.3118 16.5009C17.9398 15.7644 18.2028 14.7668 17.9999 13.8973C17.8228 13.1388 17.3063 12.54 16.5449 12.2121C16.2088 12.0673 15.8855 12.0026 15.5807 11.9938ZM3.07505 12.5571C2.84584 12.5514 2.64771 12.7091 2.60168 12.9332C2.57773 13.0562 2.60189 13.1844 2.6714 13.2873C2.74092 13.392 2.84924 13.4633 2.9723 13.4873C3.09348 13.5112 3.21983 13.4852 3.32457 13.4176C3.42744 13.348 3.49877 13.2397 3.52273 13.1167C3.57392 12.8635 3.40894 12.6161 3.15578 12.5644C3.12806 12.5606 3.10229 12.5571 3.07505 12.5571ZM27.9396 12.5571C27.9086 12.5552 27.8771 12.5588 27.8461 12.5644C27.5929 12.6156 27.4275 12.8635 27.4773 13.1167C27.5285 13.3717 27.7764 13.5371 28.0295 13.4873C28.2846 13.4361 28.4499 13.1882 28.4002 12.9332C28.356 12.7148 28.1637 12.5571 27.9396 12.5571ZM21.0153 12.9268C21.8955 12.9944 22.5913 13.7345 22.5913 14.6349C22.5913 15.532 21.8955 16.2695 21.0153 16.3366V12.9268ZM15.5064 12.935C15.7188 12.9345 15.9426 12.9748 16.1734 13.0745C16.6609 13.2839 16.9772 13.6414 17.0861 14.1093C17.2205 14.6851 17.0288 15.3836 16.5981 15.889C15.7705 16.8547 14.0795 18.4347 13.5084 18.9631C13.3938 18.8551 13.2286 18.7036 13.0323 18.5218C12.2324 17.7825 10.7437 16.4058 10.3581 15.8807C9.91283 15.2739 9.62616 14.0825 10.2471 13.4231C10.5233 13.129 10.9586 12.9616 11.4443 12.9616C11.4499 12.9616 11.4565 12.9612 11.4626 12.9607C12.0939 12.9663 12.694 13.2475 13.1533 13.7524C13.2426 13.8501 13.3691 13.9056 13.501 13.9056H13.5029C13.6363 13.9047 13.7641 13.8469 13.8524 13.7478C13.8883 13.7074 14.586 12.9374 15.5064 12.935ZM2.81818 15.0303C2.55938 15.0303 2.34848 15.2412 2.34848 15.5C2.34848 15.7588 2.55938 15.9697 2.81818 15.9697C3.07698 15.9697 3.28788 15.7588 3.28788 15.5C3.28788 15.2412 3.07698 15.0303 2.81818 15.0303ZM28.1818 15.0303C27.923 15.0303 27.7121 15.2412 27.7121 15.5C27.7121 15.7588 27.923 15.9697 28.1818 15.9697C28.4406 15.9697 28.6515 15.7588 28.6515 15.5C28.6515 15.2412 28.4406 15.0303 28.1818 15.0303ZM3.06404 17.5036C3.03304 17.5036 3.00147 17.5071 2.97047 17.5127C2.71542 17.5639 2.55001 17.8127 2.60168 18.0677C2.65288 18.3209 2.8989 18.4863 3.15394 18.4365C3.40899 18.3853 3.57439 18.1365 3.52273 17.8833C3.47858 17.6626 3.28808 17.5054 3.06404 17.5036ZM27.9506 17.5036C27.7214 17.4979 27.5233 17.6574 27.4773 17.8833C27.428 18.1365 27.5929 18.3849 27.8461 18.4365C28.1011 18.4858 28.3485 18.3209 28.4002 18.0677C28.4495 17.8127 28.2846 17.5644 28.0295 17.5127C28.0037 17.5085 27.9779 17.5054 27.9506 17.5036ZM27.2277 19.8814C27.0333 19.8776 26.8571 19.9932 26.7819 20.1731C26.6828 20.4117 26.7964 20.6868 27.0369 20.7859C27.2774 20.885 27.5506 20.7713 27.6516 20.5327C27.7507 20.2922 27.637 20.0172 27.3965 19.9181C27.343 19.896 27.2846 19.8833 27.2277 19.8814ZM3.78693 19.8832C3.72446 19.8832 3.66217 19.8941 3.60346 19.9181C3.48979 19.966 3.3977 20.0576 3.35026 20.1731C3.30235 20.2887 3.3024 20.4172 3.34843 20.5327C3.44941 20.7732 3.72258 20.8869 3.96307 20.7859C4.07861 20.7399 4.17019 20.6483 4.2181 20.5327C4.26601 20.4172 4.26601 20.2887 4.2181 20.1731C4.14671 19.9989 3.97622 19.8851 3.78693 19.8832ZM4.96117 22.0758C4.86583 22.0739 4.77404 22.1016 4.69514 22.1547C4.48048 22.2998 4.42161 22.5895 4.56487 22.806C4.71 23.0206 5.00151 23.0796 5.21804 22.9344C5.43269 22.7912 5.49161 22.4996 5.34647 22.2831C5.26005 22.1549 5.1157 22.0776 4.96117 22.0758ZM26.0535 22.0758C25.8938 22.072 25.7437 22.1511 25.6554 22.2831C25.5102 22.4996 25.5691 22.7893 25.7838 22.9344C25.8867 23.0039 26.0149 23.03 26.1361 23.0041C26.2591 22.9802 26.367 22.9089 26.4351 22.8042C26.5803 22.5895 26.5214 22.2979 26.3049 22.1547C26.2316 22.1039 26.1432 22.0758 26.0535 22.0758ZM6.53906 23.9986C6.41224 23.9967 6.28977 24.0465 6.20147 24.1362C6.01782 24.318 6.01782 24.6168 6.20147 24.7985C6.38324 24.9822 6.68204 24.9822 6.86381 24.7985C7.04747 24.6168 7.04747 24.318 6.86381 24.1362C6.77786 24.0479 6.66212 23.9986 6.53906 23.9986ZM24.4738 23.9986C24.347 23.9967 24.2245 24.0465 24.1362 24.1362C23.9525 24.318 23.9525 24.6168 24.1362 24.7985C24.318 24.9822 24.6168 24.9822 24.7985 24.7985C24.9822 24.6168 24.9822 24.318 24.7985 24.1362C24.7126 24.0479 24.5968 23.9986 24.4738 23.9986ZM8.46372 25.5746C8.30402 25.5709 8.15388 25.65 8.06558 25.782C7.92044 25.9985 7.97932 26.29 8.19585 26.4351C8.4105 26.5784 8.70209 26.5195 8.84535 26.3049C8.99048 26.0883 8.93157 25.7987 8.71692 25.6535C8.64129 25.6042 8.55343 25.5746 8.46372 25.5746ZM22.551 25.5746C22.4556 25.5728 22.3638 25.6005 22.2849 25.6517C22.1802 25.7212 22.1089 25.8295 22.0849 25.9526C22.061 26.0738 22.087 26.202 22.1565 26.3049C22.2997 26.5195 22.5913 26.5784 22.8078 26.4351C23.0225 26.29 23.0814 25.9985 22.9363 25.782C22.8517 25.6537 22.7069 25.5746 22.551 25.5746ZM10.6581 26.7452C10.4636 26.7414 10.2873 26.857 10.2141 27.0369C10.115 27.2755 10.2287 27.5506 10.4673 27.6497C10.7078 27.7488 10.9828 27.6351 11.0819 27.3965C11.181 27.1561 11.0674 26.881 10.8269 26.7819C10.7733 26.7603 10.7168 26.7471 10.6581 26.7452ZM20.3566 26.7452C20.2941 26.7452 20.2318 26.7579 20.175 26.7819C20.0594 26.8298 19.9678 26.9214 19.9199 27.0351C19.872 27.1506 19.8721 27.2805 19.9181 27.3965C20.0191 27.6351 20.2922 27.7488 20.5327 27.6497C20.6483 27.6018 20.7399 27.5102 20.7878 27.3965C20.8357 27.281 20.8357 27.1511 20.7878 27.0369C20.7159 26.8608 20.5454 26.7471 20.3566 26.7452ZM13.0396 27.4681C12.8104 27.4625 12.6104 27.622 12.5662 27.8461C12.515 28.1011 12.68 28.3467 12.935 28.3983C13.1901 28.45 13.4356 28.2846 13.4873 28.0295C13.5389 27.7745 13.3735 27.5289 13.1185 27.4773C13.0927 27.4716 13.065 27.4681 13.0396 27.4681ZM17.9751 27.4699C17.9441 27.4681 17.9125 27.4716 17.8833 27.4773C17.6283 27.5285 17.4629 27.7745 17.5127 28.0295C17.5386 28.1526 17.6108 28.2586 17.7136 28.3286C17.8184 28.3981 17.9447 28.4241 18.0677 28.4002C18.1889 28.3743 18.2968 28.303 18.3668 28.2002C18.4349 28.0954 18.4605 27.9691 18.4365 27.8461C18.3919 27.6276 18.1987 27.4699 17.9751 27.4699ZM15.5 27.7121C15.2412 27.7121 15.0303 27.923 15.0303 28.1818C15.0303 28.4406 15.2412 28.6515 15.5 28.6515C15.7588 28.6515 15.9697 28.4406 15.9697 28.1818C15.9697 27.923 15.7588 27.7121 15.5 27.7121Z" fill="#D9D9D9"/>
</svg>
